<svg id="behance" xmlns="http://www.w3.org/2000/svg" width="46.221" height="28.891" viewBox="0 0 46.221 28.891">
  <g id="Group_2" data-name="Group 2" transform="translate(0 0)">
    <g id="Group_1" data-name="Group 1">
      <path id="Path_1" data-name="Path 1" d="M19.016,109.038a6.933,6.933,0,0,0,2.181-1.6,6.218,6.218,0,0,0,1.32-4.152,7.1,7.1,0,0,0-1.309-4.3q-2.184-2.93-7.4-3H0v28.177H12.871a20.127,20.127,0,0,0,4.036-.378,7.937,7.937,0,0,0,3.227-1.416,7.813,7.813,0,0,0,2.022-2.216,8.141,8.141,0,0,0,1.274-4.492,7.392,7.392,0,0,0-1.112-4.128A6.42,6.42,0,0,0,19.016,109.038ZM5.694,100.873h6.217a10.961,10.961,0,0,1,3.377.439,2.528,2.528,0,0,1,1.534,2.606,2.653,2.653,0,0,1-1.161,2.473,5.827,5.827,0,0,1-3.022.7H5.694Zm9.831,17.9a6.809,6.809,0,0,1-2.895.5H5.694v-7.514h7.032a7.339,7.339,0,0,1,2.86.474,3.021,3.021,0,0,1,1.817,3.025A3.542,3.542,0,0,1,15.526,118.771Z" transform="translate(0 -95.979)"/>
      <rect id="Rectangle_2" data-name="Rectangle 2" width="12.241" height="3.507" transform="translate(29.538 1.315)"/>
      <path id="Path_2" data-name="Path 2" d="M300.636,179.546a10.052,10.052,0,0,0-1.687-4.308,8.505,8.505,0,0,0-3.646-3.083,12.07,12.07,0,0,0-4.969-.977,10.284,10.284,0,0,0-7.552,2.889q-2.908,2.891-2.909,8.309,0,5.777,3.227,8.341a11.593,11.593,0,0,0,7.439,2.563q5.109,0,7.948-3.036a6.836,6.836,0,0,0,2.045-3.767h-5.639a4.547,4.547,0,0,1-1.138,1.433,4.721,4.721,0,0,1-3.062.953,5.662,5.662,0,0,1-3.048-.786c-1.393-.838-2.121-2.305-2.213-4.394h15.39A26.512,26.512,0,0,0,300.636,179.546Zm-15.066.54a5.648,5.648,0,0,1,1.473-3.224,4.441,4.441,0,0,1,3.3-1.193,4.9,4.9,0,0,1,3.279,1.121,4.556,4.556,0,0,1,1.471,3.3Z" transform="translate(-254.604 -164.39)"/>
    </g>
  </g>
</svg>
