<svg id="github" xmlns="http://www.w3.org/2000/svg" width="34.268" height="33.554" viewBox="0 0 34.268 33.554">
  <g id="Group_3" data-name="Group 3" transform="translate(0 0)">
    <path id="Path_3" data-name="Path 3" d="M17.132,5.329A17.212,17.212,0,0,0,11.72,38.853c.857.158,1.169-.373,1.169-.829,0-.409-.015-1.491-.024-2.926C8.1,36.138,7.093,32.792,7.093,32.792a4.543,4.543,0,0,0-1.9-2.517c-1.557-1.067.116-1.045.116-1.045A3.6,3.6,0,0,1,7.931,31a3.641,3.641,0,0,0,4.988,1.429,3.672,3.672,0,0,1,1.088-2.3c-3.8-.435-7.8-1.91-7.8-8.5a6.668,6.668,0,0,1,1.765-4.618,6.2,6.2,0,0,1,.167-4.551S9.574,12,12.846,14.226a16.173,16.173,0,0,1,8.58,0c3.27-2.225,4.708-1.763,4.708-1.763a6.208,6.208,0,0,1,.171,4.551,6.655,6.655,0,0,1,1.761,4.618c0,6.607-4.005,8.061-7.822,8.488a4.115,4.115,0,0,1,1.163,3.185c0,2.3-.021,4.155-.021,4.718,0,.46.308,1,1.178.827A17.214,17.214,0,0,0,17.132,5.329Z" transform="translate(0 -5.329)"/>
  </g>
</svg>
