<svg xmlns="http://www.w3.org/2000/svg" width="33.834" height="34" viewBox="0 0 33.834 34">
  <g id="linkedin" transform="translate(0 0.446)">
    <g id="Group_5" data-name="Group 5" transform="translate(0.251 10.466)">
      <g id="Group_4" data-name="Group 4">
        <rect id="Rectangle_3" data-name="Rectangle 3" width="7.51" height="23.088"/>
      </g>
    </g>
    <g id="Group_7" data-name="Group 7" transform="translate(10.746 10.466)">
      <g id="Group_6" data-name="Group 6">
        <path id="Path_4" data-name="Path 4" d="M177.472,160.271c-.08-.025-.155-.052-.239-.076-.1-.023-.2-.042-.3-.059A6.731,6.731,0,0,0,175.58,160c-4.378,0-7.155,3.184-8.07,4.414V160H160v23.088h7.51V170.495s5.676-7.9,8.07-2.1v14.693h7.508v-15.58A7.488,7.488,0,0,0,177.472,160.271Z" transform="translate(-160 -160)"/>
      </g>
    </g>
    <g id="Group_9" data-name="Group 9" transform="translate(0 0)">
      <g id="Group_8" data-name="Group 8" transform="translate(0 0)">
        <circle id="Ellipse_1" data-name="Ellipse 1" cx="4" cy="4" r="4" transform="translate(0 -0.446)"/>
      </g>
    </g>
  </g>
</svg>
