<svg xmlns="http://www.w3.org/2000/svg" width="64.25" height="112.62" viewBox="0 0 64.25 112.62">
  <g id="paint-brush" transform="translate(-109.95)">
    <path id="Path_17" data-name="Path 17" d="M172.551,36.839a1.65,1.65,0,0,0,1.65-1.65V3.849A3.854,3.854,0,0,0,170.351,0H113.8a3.854,3.854,0,0,0-3.849,3.849V68.234a7.157,7.157,0,0,0,7.149,7.149H129.68a3.85,3.85,0,0,1,3.827,4.276l-2.321,20.791a10.956,10.956,0,1,0,21.778,0l-2.321-20.79a3.85,3.85,0,0,1,3.826-4.276h12.582a7.157,7.157,0,0,0,7.149-7.149V42.379a1.65,1.65,0,1,0-3.3,0V48.8h-36.03a1.65,1.65,0,0,0,0,3.3H170.9v6.27H113.249V52.1h14.431a1.65,1.65,0,1,0,0-3.3H113.249V3.849a.551.551,0,0,1,.55-.55h5.745v12.47a1.65,1.65,0,1,0,3.3,0V3.3H161.3v32.88a2.526,2.526,0,0,1-5.053,0v-11.7a5.826,5.826,0,1,0-11.651,0v2.9a2.525,2.525,0,1,1-5.05,0v-9.5a5.826,5.826,0,1,0-11.651,0l0,18.3a2.525,2.525,0,1,1-5.05,0V22.959a1.65,1.65,0,1,0-3.3,0v13.22a5.825,5.825,0,0,0,11.649,0l0-18.3a2.526,2.526,0,1,1,5.053,0v9.5a5.824,5.824,0,1,0,11.649,0v-2.9a2.526,2.526,0,1,1,5.052,0v11.7a5.826,5.826,0,0,0,11.651,0V3.3h5.748a.551.551,0,0,1,.55.55v31.34A1.65,1.65,0,0,0,172.551,36.839ZM170.9,61.668v6.566a3.854,3.854,0,0,1-3.849,3.849H154.47a7.149,7.149,0,0,0-7.106,7.941l2.321,20.791a7.657,7.657,0,1,1-15.22,0l2.321-20.791a7.149,7.149,0,0,0-7.106-7.941H117.1a3.854,3.854,0,0,1-3.849-3.849V61.668H170.9Z" fill="#6e00ff"/>
    <path id="Path_18" data-name="Path 18" d="M239.471,444.989a4.661,4.661,0,1,0-4.661-4.661A4.666,4.666,0,0,0,239.471,444.989Zm0-6.022a1.361,1.361,0,1,1-1.362,1.361A1.363,1.363,0,0,1,239.471,438.967Z" transform="translate(-97.396 -339.837)" fill="#b7b7b7"/>
  </g>
</svg>
